/* XPM */
static const char *ICON_MYNOTEPAD_xpm[] = {
/* columns rows colors chars-per-pixel */
"48 48 142 2 ",
"   c #00006161FFFF",
".  c #00006363FFFF",
"X  c #00006464FFFF",
"o  c #00006565FFFF",
"O  c #00006666FFFF",
"+  c #00006767FFFF",
"@  c #00006868FFFF",
"#  c #00006969FFFF",
"$  c #00006A6AFFFF",
"%  c #00006B6BFFFF",
"&  c #00006C6CFFFF",
"*  c #00006D6DFFFF",
"=  c #00006E6EFFFF",
"-  c #01016E6EFFFF",
";  c #00006F6FFFFF",
":  c #00007070FFFF",
">  c #00007272FFFF",
",  c #00007373FFFF",
"<  c #00007474FFFF",
"1  c #01017575FFFF",
"2  c #03037474FFFF",
"3  c #00007777FFFF",
"4  c #02027676FFFF",
"5  c #02027777FFFF",
"6  c #05057575FFFF",
"7  c #00007878FFFF",
"8  c #01017979FFFF",
"9  c #03037878FFFF",
"0  c #02027979FFFF",
"q  c #03037979FFFF",
"w  c #03037A7AFFFF",
"e  c #04047A7AFFFF",
"r  c #04047B7BFFFF",
"t  c #07077C7CFFFF",
"y  c #0B0B7878FFFF",
"u  c #0B0B7B7BFFFF",
"i  c #0A0A7D7DFFFF",
"p  c #0D0D7C7CFFFF",
"a  c #0E0E7C7CFFFF",
"s  c #0E0E7E7EFFFF",
"d  c #11117E7EFFFF",
"f  c #16168181FFFF",
"g  c #24248787FFFF",
"h  c #22228A8AFFFF",
"j  c #23238A8AFFFF",
"k  c #24248888FFFF",
"l  c #25258888FFFF",
"z  c #25258989FFFF",
"x  c #26268989FFFF",
"c  c #24248A8AFFFF",
"v  c #2F2F9191FFFF",
"b  c #30309191FFFF",
"n  c #31319292FFFF",
"m  c #34349292FFFF",
"M  c #38389696FFFF",
"N  c #3F3F9797FFFF",
"B  c #47479C9CFFFF",
"V  c #48489C9CFFFF",
"C  c #4E4E9F9FFFFF",
"Z  c #4A4AA0A0FFFF",
"A  c #4C4CA1A1FFFF",
"S  c #5252A2A2FFFF",
"D  c #5454A3A3FFFF",
"F  c #5353A4A4FFFF",
"G  c #5757A6A6FFFF",
"H  c #5B5BA7A7FFFF",
"J  c #5C5CA7A7FFFF",
"K  c #5F5FA8A8FFFF",
"L  c #6060A9A9FFFF",
"P  c #6060AAAAFFFF",
"I  c #6161AAAAFFFF",
"U  c #6161ABABFFFF",
"Y  c #6363ABABFEFE",
"T  c #6262AAAAFFFF",
"R  c #6262ABABFFFF",
"E  c #6363ABABFFFF",
"W  c #6262ACACFFFF",
"Q  c #6363ACACFFFF",
"!  c #6363ADADFFFF",
"~  c #6464ACACFFFF",
"^  c #6F6FB3B3FFFF",
"/  c #7070B1B1FFFF",
"(  c #7070B3B3FFFF",
")  c #7373B5B5FFFF",
"_  c #7878B7B7FFFF",
"`  c #7B7BB6B6FFFF",
"'  c #7E7EB9B9FFFF",
"]  c #8080BCBCFFFF",
"[  c #8585BEBEFFFF",
"{  c #8989BEBEFFFF",
"}  c #8F8FC2C2FFFF",
"|  c #8E8EC3C3FFFF",
" . c #9191C3C3FFFF",
".. c #9191C4C4FFFF",
"X. c #9292C5C5FFFF",
"o. c #9696C7C7FFFF",
"O. c #9797C7C7FFFF",
"+. c #9C9CCACAFFFF",
"@. c #A8A8D0D0FFFF",
"#. c #AFAFD4D4FFFF",
"$. c #B2B2D5D5FFFF",
"%. c #B5B5D5D5FFFF",
"&. c #B5B5D8D8FFFF",
"*. c #B7B7D8D8FFFF",
"=. c #B9B9D9D9FFFF",
"-. c #BDBDDBDBFFFF",
";. c #BFBFDCDCFFFF",
":. c #C0C0DDDDFFFF",
">. c #CECEE4E4FFFF",
",. c #D3D3E7E7FFFF",
"<. c #D5D5E9E9FFFF",
"1. c #D6D6E9E9FFFF",
"2. c #D8D8EAEAFFFF",
"3. c #D9D9EBEBFFFF",
"4. c #DCDCECECFFFF",
"5. c #DDDDEDEDFFFF",
"6. c #DEDEEDEDFFFF",
"7. c #E0E0EEEEFFFF",
"8. c #E0E0EFEFFFFF",
"9. c #E1E1EFEFFFFF",
"0. c #E2E2EFEFFFFF",
"q. c #E2E2F0F0FFFF",
"w. c #E3E3F0F0FFFF",
"e. c #E4E4F1F1FFFF",
"r. c #E7E7F2F2FFFF",
"t. c #EBEBF4F4FFFF",
"y. c #ECECF4F4FFFF",
"u. c #EDEDF6F6FFFF",
"i. c #EEEEF6F6FFFF",
"p. c #EFEFF6F6FFFF",
"a. c #F4F4F9F9FFFF",
"s. c #F6F6FAFAFFFF",
"d. c #F8F8FBFBFFFF",
"f. c #F9F9FCFCFFFF",
"g. c #FAFAFCFCFFFF",
"h. c #FBFBFCFCFFFF",
"j. c #FBFBFDFDFFFF",
"k. c #FCFCFDFDFFFF",
"l. c #FDFDFDFDFFFF",
"z. c #FEFEFEFEFFFF",
"x. c white",
"c. c None",
/* pixels */
"c.c.c.c.c.c.c.c.c.c.c.c.c.c.c.c.c.c.c.c.c.c.c.c.c.c.c.c.c.c.c.c.c.c.c.c.c.c.c.c.c.c.c.c.c.c.c.c.",
"c.c.c.c.c.c.c.c.c.c.c.c.c.c.c.c.c.c.c.c.c.c.c.c.c.c.c.c.c.c.c.c.c.c.c.c.c.c.c.c.c.c.c.c.c.c.c.c.",
"c.c.c.c.c.c.c.c.c.c.c.c.c.c.c.c.c.c.c.c.c.c.c.c.c.c.c.c.c.c.c.c.c.c.c.c.c.c.c.c.c.c.c.c.c.c.c.c.",
"c.c.c.c.c.c.c.c.c.c.c.c.c.c.c.c.c.c.c.c.c.c.c.c.c.c.c.c.c.c.c.c.c.c.c.c.c.c.c.c.c.c.c.c.c.c.c.c.",
"c.c.c.c.c.c.c.c.c.c.c.c.c.c.c.c.c.c.c.c.c.c.c.c.c.c.c.c.c.c.c.c.c.c.c.c.c.c.c.c.c.c.c.c.c.c.c.c.",
"c.c.c.c.c.c.c.c.c.c.c.c.c.c.c.c.c.c.c.c.c.c.c.c.c.c.c.c.c.c.c.c.c.x.x.x.x.x.c.c.c.c.c.c.c.c.c.c.",
"c.c.c.c.c.c.c.c.c.c.c.c.c.c.c.c.c.c.c.c.c.c.c.c.c.c.c.c.c.c.c.c.x.<.{ J K  .5.x.c.c.c.c.c.c.c.c.",
"c.c.c.c.c.c.c.c.c.c.c.c.c.c.c.c.c.c.c.c.c.c.c.c.c.c.c.c.c.c.c.d.( 2 $ & & $ y X.x.c.c.c.c.c.c.c.",
"c.c.c.c.c.c.c.c.c.c.c.c.c.c.c.c.c.c.c.c.c.c.c.c.c.c.c.c.c.c.h.f.F $ t q q w < # o.x.c.c.c.c.c.c.",
"c.c.c.c.c.c.c.c.c.c.c.c.c.c.c.c.c.c.c.c.c.c.c.c.c.c.c.c.c.x.x.l.x.R & 0 7 3 7 1 4 7.c.c.c.c.c.c.",
"c.c.c.c.c.c.c.c.c.c.c.c.c.c.c.c.c.c.c.c.c.c.c.c.c.c.c.c.x.` 3.x.g.x.P % 0 7 3 0 $ | x.c.c.c.c.c.",
"c.c.c.c.c.c.c.c.c.c.c.c.c.c.c.c.c.c.c.c.c.c.c.c.c.c.c.x.P . l 9.x.h.x.I & 0 7 9 & H x.c.c.c.c.c.",
"c.c.c.c.c.c.c.c.c.c.c.c.c.c.c.c.c.c.c.c.c.c.c.c.c.c.x.I @ e ; k 9.x.h.x.R % 0 q & G x.c.c.c.c.c.",
"c.c.c.c.c.c.c.c.c.c.c.c.c.c.c.c.c.c.c.c.c.c.c.c.c.x.R @ q 3 0 ; k q.x.g.x.P & t $ [ x.c.c.c.c.c.",
"c.c.c.c.c.c.c.c.c.c.c.c.c.c.c.c.c.c.c.c.c.c.c.c.x.R # q 7 7 3 8 ; g w.x.j.x.R % > 2.z.c.c.c.c.c.",
"c.c.c.c.c.c.c.c.c.c.c.c.c.c.c.c.c.c.c.c.c.c.c.x.I $ q 7 3 7 7 3 0 ; k 8.x.g.x.D ) x.c.c.c.c.c.c.",
"c.c.c.c.c.c.c.c.c.c.c.c.c.c.c.c.c.c.c.c.c.c.x.I % 0 7 3 7 7 7 7 3 8 ; l 8.x.l.x.x.c.c.c.c.c.c.c.",
"c.c.c.c.c.c.c.c.c.c.c.c.c.c.c.c.c.c.c.c.c.x.P $ q 7 3 7 7 7 7 7 7 3 0 ; x ,.l.l.z.c.c.c.c.c.c.c.",
"c.c.c.c.c.c.c.c.c.c.c.c.c.c.c.c.c.c.c.c.x.L $ 0 7 7 7 7 7 7 7 7 7 3 3 e . _ x.a.c.c.c.c.c.c.c.c.",
"c.c.c.c.c.c.c.c.c.c.c.c.c.c.c.c.c.c.c.x.Y # q 7 3 7 7 7 7 7 7 7 3 7 q @ P k.s.c.c.c.c.c.c.c.c.c.",
"c.c.c.c.c.c.c.c.c.c.c.c.c.c.c.c.c.c.x.E @ q 7 3 7 7 7 7 7 7 7 3 7 q # P x.c.c.c.c.c.c.c.c.c.c.c.",
"c.c.c.c.c.c.c.c.c.c.c.c.c.c.c.c.c.x.L # q 7 3 7 7 7 7 7 7 7 3 7 q # T x.c.c.c.c.c.c.c.c.c.c.c.c.",
"c.c.c.c.c.c.c.c.c.c.c.c.c.c.c.c.x.P # q 7 3 7 7 7 7 7 7 7 7 7 0 $ R x.c.c.c.c.c.c.c.c.c.c.c.c.c.",
"c.c.c.c.c.c.c.c.c.c.c.c.c.c.c.x.I $ 0 7 3 7 7 7 7 7 7 7 3 7 q $ I x.c.c.c.c.c.c.c.c.c.c.c.c.c.c.",
"c.c.c.c.c.c.c.c.c.c.c.c.c.c.x.I $ q 7 3 7 7 7 7 7 7 7 3 7 0 $ I x.c.c.c.c.c.c.c.c.c.c.c.c.c.c.c.",
"c.c.c.c.c.c.c.c.c.c.c.c.c.x.R $ 0 7 7 7 7 7 7 7 7 7 3 7 q # P x.c.c.c.c.c.c.c.c.c.c.c.c.c.c.c.c.",
"c.c.c.c.c.c.c.c.c.c.c.c.x.E # q 7 3 7 7 7 7 7 7 7 3 7 q # L x.c.c.c.c.c.c.c.c.c.c.c.c.c.c.c.c.c.",
"c.c.c.c.c.c.c.c.c.c.c.z.W X 3 0 3 7 7 7 7 7 7 7 3 7 q @ E x.c.c.c.c.c.c.c.c.c.c.c.c.c.c.c.c.c.c.",
"c.c.c.c.c.c.c.c.c.c.x.-.o j i ; 7 3 7 7 7 7 7 3 7 q # Y x.c.c.c.c.c.c.c.c.c.c.c.c.c.c.c.c.c.c.c.",
"c.c.c.c.c.c.c.c.c.c.x.A - 7.6.V > 0 3 7 7 7 7 7 0 $ L x.c.c.c.c.c.c.c.c.c.c.c.c.c.c.c.c.c.c.c.c.",
"c.c.c.c.c.c.c.c.c.c.0.* Z x.x.u.u , 0 3 7 3 7 q $ P x.c.c.c.c.c.c.c.c.c.c.c.c.c.c.c.c.c.c.c.c.c.",
"c.c.c.c.c.c.c.c.c.x.] o -.z.l.p.n a > 7 3 7 0 % I x.c.c.c.c.c.c.c.c.c.c.c.c.c.c.c.c.c.c.c.c.c.c.",
"c.c.c.c.c.c.c.c.c.s.d h k.z.z.s.i.e.B ; 0 q $ U x.c.c.c.c.c.c.c.c.c.c.c.c.c.c.c.c.c.c.c.c.c.c.c.",
"c.c.c.c.c.c.c.c.x.#.  ..x.g.x.x.z.x.t.p 5 # R x.c.c.c.c.c.c.c.c.c.c.c.c.c.c.c.c.c.c.c.c.c.c.c.c.",
"c.c.c.c.c.c.c.c.x.M 6 y.z.h.j.x.x.x.6.c X ~ x.c.c.c.c.c.c.c.c.c.c.c.c.c.c.c.c.c.c.c.c.c.c.c.c.c.",
"c.c.c.c.c.c.c.x.1.$ ! x.g.x.x.z.=.C = + E x.c.c.c.c.c.c.c.c.c.c.c.c.c.c.c.c.c.c.c.c.c.c.c.c.c.c.",
"c.c.c.c.c.c.c.x.^ O ;.x.x.r.} z o : S *.x.c.c.c.c.c.c.c.c.c.c.c.c.c.c.c.c.c.c.c.c.c.c.c.c.c.c.c.",
"c.c.c.c.c.c.c.p.s : b &.Q < . f ' 4.x.x.c.c.c.c.c.c.c.c.c.c.c.c.c.c.c.c.c.c.c.c.c.c.c.c.c.c.c.c.",
"c.c.c.c.c.c.x.+.* r : O & N @.a.x.c.c.c.c.c.c.c.c.c.c.c.c.c.c.c.c.c.c.c.c.c.c.c.c.c.c.c.c.c.c.c.",
"c.c.c.c.c.c.x.v $ = f / >.x.x.c.c.c.c.c.c.c.c.c.c.c.c.c.c.c.c.c.c.c.c.c.c.c.c.c.c.c.c.c.c.c.c.c.",
"c.c.c.c.c.x.$.O m O.t.x.x.c.c.c.c.c.c.c.c.c.c.c.c.c.c.c.c.c.c.c.c.c.c.c.c.c.c.c.c.c.c.c.c.c.c.c.",
"c.c.c.c.c.x.:.%.x.x.c.c.c.c.c.c.c.c.c.c.c.c.c.c.c.c.c.c.c.c.c.c.c.c.c.c.c.c.c.c.c.c.c.c.c.c.c.c.",
"c.c.c.c.c.c.x.x.c.c.c.c.c.c.c.c.c.c.c.c.c.c.c.c.c.c.c.c.c.c.c.c.c.c.c.c.c.c.c.c.c.c.c.c.c.c.c.c.",
"c.c.c.c.c.c.c.c.c.c.c.c.c.c.c.c.c.c.c.c.c.c.c.c.c.c.c.c.c.c.c.c.c.c.c.c.c.c.c.c.c.c.c.c.c.c.c.c.",
"c.c.c.c.c.c.c.c.c.c.c.c.c.c.c.c.c.c.c.c.c.c.c.c.c.c.c.c.c.c.c.c.c.c.c.c.c.c.c.c.c.c.c.c.c.c.c.c.",
"c.c.c.c.c.c.c.c.c.c.c.c.c.c.c.c.c.c.c.c.c.c.c.c.c.c.c.c.c.c.c.c.c.c.c.c.c.c.c.c.c.c.c.c.c.c.c.c.",
"c.c.c.c.c.c.c.c.c.c.c.c.c.c.c.c.c.c.c.c.c.c.c.c.c.c.c.c.c.c.c.c.c.c.c.c.c.c.c.c.c.c.c.c.c.c.c.c.",
"c.c.c.c.c.c.c.c.c.c.c.c.c.c.c.c.c.c.c.c.c.c.c.c.c.c.c.c.c.c.c.c.c.c.c.c.c.c.c.c.c.c.c.c.c.c.c.c."
};
